M48
; DRILL file {KiCad 5.1.6-c6e7f7d~87~ubuntu20.04.1} date Thu Sep 17 09:21:40 2020
; FORMAT={-:-/ absolute / inch / decimal}
; #@! TF.CreationDate,2020-09-17T09:21:40-03:00
; #@! TF.GenerationSoftware,Kicad,Pcbnew,5.1.6-c6e7f7d~87~ubuntu20.04.1
; #@! TF.FileFunction,Plated,1,2,PTH
FMAT,2
INCH
T1C0.0157
T2C0.0315
T3C0.0354
T4C0.0394
T5C0.0598
%
G90
G05
T1
X1.0769Y-1.7561
X1.2957Y-1.2091
X1.5042Y-1.4779
X1.6963Y-1.4173
X1.7114Y-1.7421
X1.7758Y-1.2104
X2.3496Y-1.8575
X2.4815Y-1.211
X2.5856Y-1.2139
T2
X2.5613Y-1.3417
X2.5613Y-1.7417
X1.5978Y-1.3417
X1.5978Y-1.7417
X2.7962Y-1.7983
X2.8946Y-1.7983
X1.8141Y-1.3413
X1.8141Y-1.6413
X1.9141Y-1.3413
X1.9141Y-1.6413
X2.0141Y-1.3413
X2.0141Y-1.6413
X2.1141Y-1.3413
X2.1141Y-1.6413
X2.2141Y-1.3413
X2.2141Y-1.6413
X2.3141Y-1.3413
X2.3141Y-1.6413
X2.4141Y-1.3413
X2.4141Y-1.6413
X1.9454Y-1.2107
X2.3454Y-1.2107
X1.4051Y-1.3426
X1.4051Y-1.7426
X1.8943Y-1.7685
X2.1943Y-1.7685
T3
X1.0767Y-1.4679
X1.1767Y-1.4679
T4
X1.229Y-1.954
X1.329Y-1.954
X1.429Y-1.954
X1.529Y-1.954
X1.629Y-1.954
X1.729Y-1.954
X1.829Y-1.954
X1.929Y-1.954
X2.029Y-1.954
X2.129Y-1.954
X2.229Y-1.954
X2.329Y-1.954
X2.429Y-1.954
X2.529Y-1.954
X2.629Y-1.954
X2.729Y-1.954
X1.629Y-1.052
X1.729Y-1.052
X1.829Y-1.052
X1.929Y-1.052
X2.029Y-1.052
X2.129Y-1.052
X2.229Y-1.052
X2.329Y-1.052
X2.429Y-1.052
X2.529Y-1.052
X2.629Y-1.052
X2.729Y-1.052
T5
X2.7911Y-1.2714
X2.7911Y-1.4714
T0
M30
